<mxfile host="app.diagrams.net" modified="2024-03-21T06:29:04.164Z" agent="Mozilla/5.0 (Windows NT 10.0; Win64; x64) AppleWebKit/537.36 (KHTML, like Gecko) Chrome/122.0.0.0 Safari/537.36" version="22.1.17" etag="UIkUVhDo8OibkWL8unui" type="github">
  <diagram name="Page-1" id="GDlJGWd4jcVvS-mw2g_D">
    <mxGraphModel>
      <root>
        <mxCell id="0" />
        <mxCell id="1" parent="0" />
      </root>
    </mxGraphModel>
  </diagram>
</mxfile>
